<svg xmlns="http://www.w3.org/2000/svg" xmlns:xlink="http://www.w3.org/1999/xlink" version="1.1" class="marks" width="563" height="150" viewBox="0 0 563 150"><rect width="563" height="150" fill="white"/><g fill="none" stroke-miterlimit="10" transform="translate(57,103)"><g class="mark-group role-frame root" role="graphics-object" aria-roledescription="group mark container"><g transform="translate(0,0)"><path class="background" aria-hidden="true" d="M0,0h0v0h0Z"/><g><g class="mark-group role-column-footer column_footer" role="graphics-object" aria-roledescription="group mark container"><g transform="translate(0,10)"><path class="background" aria-hidden="true" d="M0,0h500v0h-500Z"/><g><g class="mark-group role-axis" role="graphics-symbol" aria-roledescription="axis" aria-label="X-axis titled 'Bin labels' for a linear scale with values from 0 to 400"><g transform="translate(0.5,0.5)"><path class="background" aria-hidden="true" d="M0,0h0v0h0Z" pointer-events="none"/><g><g class="mark-rule role-axis-tick" pointer-events="none"><line transform="translate(0,0)" x2="0" y2="5" stroke="#888" stroke-width="1" opacity="1"/><line transform="translate(25,0)" x2="0" y2="5" stroke="#888" stroke-width="1" opacity="1"/><line transform="translate(50,0)" x2="0" y2="5" stroke="#888" stroke-width="1" opacity="1"/><line transform="translate(75,0)" x2="0" y2="5" stroke="#888" stroke-width="1" opacity="1"/><line transform="translate(100,0)" x2="0" y2="5" stroke="#888" stroke-width="1" opacity="1"/><line transform="translate(125,0)" x2="0" y2="5" stroke="#888" stroke-width="1" opacity="1"/><line transform="translate(150,0)" x2="0" y2="5" stroke="#888" stroke-width="1" opacity="1"/><line transform="translate(175,0)" x2="0" y2="5" stroke="#888" stroke-width="1" opacity="1"/><line transform="translate(200,0)" x2="0" y2="5" stroke="#888" stroke-width="1" opacity="1"/><line transform="translate(225,0)" x2="0" y2="5" stroke="#888" stroke-width="1" opacity="1"/><line transform="translate(250,0)" x2="0" y2="5" stroke="#888" stroke-width="1" opacity="1"/><line transform="translate(275,0)" x2="0" y2="5" stroke="#888" stroke-width="1" opacity="1"/><line transform="translate(300,0)" x2="0" y2="5" stroke="#888" stroke-width="1" opacity="1"/><line transform="translate(325,0)" x2="0" y2="5" stroke="#888" stroke-width="1" opacity="1"/><line transform="translate(350,0)" x2="0" y2="5" stroke="#888" stroke-width="1" opacity="1"/><line transform="translate(375,0)" x2="0" y2="5" stroke="#888" stroke-width="1" opacity="1"/><line transform="translate(400,0)" x2="0" y2="5" stroke="#888" stroke-width="1" opacity="1"/><line transform="translate(425,0)" x2="0" y2="5" stroke="#888" stroke-width="1" opacity="1"/><line transform="translate(450,0)" x2="0" y2="5" stroke="#888" stroke-width="1" opacity="1"/><line transform="translate(475,0)" x2="0" y2="5" stroke="#888" stroke-width="1" opacity="1"/><line transform="translate(500,0)" x2="0" y2="5" stroke="#888" stroke-width="1" opacity="1"/></g><g class="mark-text role-axis-label" pointer-events="none"><text text-anchor="start" transform="translate(0,15)" font-family="sans-serif" font-size="10px" fill="#000" opacity="1">0</text><text text-anchor="middle" transform="translate(25,15)" font-family="sans-serif" font-size="10px" fill="#000" opacity="0">20</text><text text-anchor="middle" transform="translate(50,15)" font-family="sans-serif" font-size="10px" fill="#000" opacity="1">40</text><text text-anchor="middle" transform="translate(75,15)" font-family="sans-serif" font-size="10px" fill="#000" opacity="0">60</text><text text-anchor="middle" transform="translate(100,15)" font-family="sans-serif" font-size="10px" fill="#000" opacity="1">80</text><text text-anchor="middle" transform="translate(125,15)" font-family="sans-serif" font-size="10px" fill="#000" opacity="0">100</text><text text-anchor="middle" transform="translate(150,15)" font-family="sans-serif" font-size="10px" fill="#000" opacity="1">120</text><text text-anchor="middle" transform="translate(175,15)" font-family="sans-serif" font-size="10px" fill="#000" opacity="0">140</text><text text-anchor="middle" transform="translate(200,15)" font-family="sans-serif" font-size="10px" fill="#000" opacity="1">160</text><text text-anchor="middle" transform="translate(225,15)" font-family="sans-serif" font-size="10px" fill="#000" opacity="0">180</text><text text-anchor="middle" transform="translate(250,15)" font-family="sans-serif" font-size="10px" fill="#000" opacity="1">200</text><text text-anchor="middle" transform="translate(275,15)" font-family="sans-serif" font-size="10px" fill="#000" opacity="0">220</text><text text-anchor="middle" transform="translate(300,15)" font-family="sans-serif" font-size="10px" fill="#000" opacity="1">240</text><text text-anchor="middle" transform="translate(325,15)" font-family="sans-serif" font-size="10px" fill="#000" opacity="0">260</text><text text-anchor="middle" transform="translate(350,15)" font-family="sans-serif" font-size="10px" fill="#000" opacity="1">280</text><text text-anchor="middle" transform="translate(375,15)" font-family="sans-serif" font-size="10px" fill="#000" opacity="0">300</text><text text-anchor="middle" transform="translate(400,15)" font-family="sans-serif" font-size="10px" fill="#000" opacity="1">320</text><text text-anchor="middle" transform="translate(425,15)" font-family="sans-serif" font-size="10px" fill="#000" opacity="0">340</text><text text-anchor="middle" transform="translate(450,15)" font-family="sans-serif" font-size="10px" fill="#000" opacity="1">360</text><text text-anchor="middle" transform="translate(475,15)" font-family="sans-serif" font-size="10px" fill="#000" opacity="0">380</text><text text-anchor="end" transform="translate(500,15)" font-family="sans-serif" font-size="10px" fill="#000" opacity="1">400</text></g><g class="mark-rule role-axis-domain" pointer-events="none"><line transform="translate(0,0)" x2="500" y2="0" stroke="#888" stroke-width="1" opacity="1"/></g><g class="mark-text role-axis-title" pointer-events="none"><text text-anchor="middle" transform="translate(250,30)" font-family="sans-serif" font-size="11px" font-weight="bold" fill="#000" opacity="1">Bin labels</text></g></g><path class="foreground" aria-hidden="true" d="" pointer-events="none" display="none"/></g></g></g><path class="foreground" aria-hidden="true" d="" display="none"/></g></g><g class="mark-group role-scope cell" role="graphics-object" aria-roledescription="group mark container"><g transform="translate(0,0)"><path class="background" aria-hidden="true" d="M0,0h500v10h-500Z"/><g><g class="mark-area role-mark child_marks" role="graphics-object" aria-roledescription="area mark container"><path aria-label="Bin labels: 1; value: 0" role="graphics-symbol" aria-roledescription="area mark" d="M1.25,10C2.083,10,2.917,10,3.75,10C4.583,10,5.417,10,6.25,10C7.083,10,7.917,10,8.75,10C9.583,10,10.417,10,11.25,10C12.083,10,12.917,10,13.75,10C14.583,10,15.417,10,16.25,10C17.083,10,17.917,10,18.75,10C19.583,10,20.417,10,21.25,10C22.083,10,22.917,10,23.75,10C24.583,10,25.417,10,26.25,10C27.083,10,27.917,9.77,28.75,9.77C29.583,9.77,30.417,9.974,31.25,9.974C32.083,9.974,32.917,9.208,33.75,9.208C34.583,9.208,35.417,9.821,36.25,9.821C37.083,9.821,37.917,9.446,38.75,9.31C39.583,9.174,40.417,9.004,41.25,9.004C42.083,9.004,42.917,9.634,43.75,9.77C44.583,9.906,45.417,9.974,46.25,9.974C47.083,9.974,47.917,8.901,48.75,8.901C49.583,8.901,50.417,9.745,51.25,9.745C52.083,9.745,52.917,8.799,53.75,8.799C54.583,8.799,55.417,8.944,56.25,9.106C57.083,9.268,57.917,9.77,58.75,9.77C59.583,9.77,60.417,9.106,61.25,9.106C62.083,9.106,62.917,9.259,63.75,9.259C64.583,9.259,65.417,7.752,66.25,7.752C67.083,7.752,67.917,9.796,68.75,9.796C69.583,9.796,70.417,9.182,71.25,9.131C72.083,9.08,72.917,9.055,73.75,9.055C74.583,9.055,75.417,9.28,76.25,9.438C77.083,9.596,77.917,10,78.75,10C79.583,10,80.417,7.65,81.25,7.65C82.083,7.65,82.917,8.135,83.75,8.135C84.583,8.135,85.417,7.147,86.25,6.832C87.083,6.517,87.917,6.245,88.75,6.245C89.583,6.245,90.417,8.978,91.25,8.978C92.083,8.978,92.917,5.274,93.75,5.274C94.583,5.274,95.417,6.389,96.25,6.423C97.083,6.457,97.917,6.474,98.75,6.474C99.583,6.474,100.417,0.19,101.25,-1.777C102.083,-3.744,102.917,-2.961,103.75,-5.328C104.583,-7.696,105.417,-9.561,106.25,-18.025C107.083,-26.49,107.917,-60.996,108.75,-60.996C109.583,-60.996,110.417,-40.149,111.25,-40.149C112.083,-40.149,112.917,-45.446,113.75,-50.471C114.583,-55.495,115.417,-70.295,116.25,-70.295C117.083,-70.295,117.917,-25.485,118.75,-25.485C119.583,-25.485,120.417,-97.324,121.25,-97.324C122.083,-97.324,122.917,-21.398,123.75,-21.398C124.583,-21.398,125.417,-81.766,126.25,-81.766C127.083,-81.766,127.917,-69.789,128.75,-58.978C129.583,-48.167,130.417,-16.901,131.25,-16.901C132.083,-16.901,132.917,-28.04,133.75,-28.04C134.583,-28.04,135.417,-16.033,136.25,-16.033C137.083,-16.033,137.917,-18.945,138.75,-18.945C139.583,-18.945,140.417,4.993,141.25,4.993C142.083,4.993,142.917,-6.248,143.75,-6.248C144.583,-6.248,145.417,-1.364,146.25,0.854C147.083,3.072,147.917,6.159,148.75,7.062C149.583,7.965,150.417,8.071,151.25,8.416C152.083,8.761,152.917,8.906,153.75,9.131C154.583,9.357,155.417,9.77,156.25,9.77C157.083,9.77,157.917,9.387,158.75,9.387C159.583,9.387,160.417,9.838,161.25,9.872C162.083,9.906,162.917,9.923,163.75,9.923C164.583,9.923,165.417,9.898,166.25,9.898C167.083,9.898,167.917,10,168.75,10C169.583,10,170.417,10,171.25,10C172.083,10,172.917,10,173.75,10C174.583,10,175.417,10,176.25,10C177.083,10,177.917,10,178.75,10C179.583,10,180.417,10,181.25,10C182.083,10,182.917,10,183.75,10C184.583,10,185.417,10,186.25,10C187.083,10,187.917,10,188.75,10C189.583,10,190.417,10,191.25,10C192.083,10,192.917,10,193.75,10C194.583,10,195.417,10,196.25,10C197.083,10,197.917,10,198.75,10C199.583,10,200.417,10,201.25,10C202.083,10,202.917,10,203.75,10C204.583,10,205.417,10,206.25,10C207.083,10,207.917,10,208.75,10C209.583,10,210.417,10,211.25,10C212.083,10,212.917,10,213.75,10C214.583,10,215.417,10,216.25,10C217.083,10,217.917,10,218.75,10C219.583,10,220.417,10,221.25,10C222.083,10,222.917,10,223.75,10C224.583,10,225.417,10,226.25,10C227.083,10,227.917,10,228.75,10C229.583,10,230.417,10,231.25,10C232.083,10,232.917,10,233.75,10C234.583,10,235.417,10,236.25,10C237.083,10,237.917,10,238.75,10C239.583,10,240.417,10,241.25,10C242.083,10,242.917,10,243.75,10C244.583,10,245.417,10,246.25,10C247.083,10,247.917,10,248.75,10C249.583,10,250.417,10,251.25,10C252.083,10,252.917,10,253.75,10C254.583,10,255.417,10,256.25,10C257.083,10,257.917,10,258.75,10C259.583,10,260.417,10,261.25,10C262.083,10,262.917,10,263.75,10C264.583,10,265.417,10,266.25,10C267.083,10,267.917,10,268.75,10C269.583,10,270.417,10,271.25,10C272.083,10,272.917,10,273.75,10C274.583,10,275.417,10,276.25,10C277.083,10,277.917,10,278.75,10C279.583,10,280.417,10,281.25,10C282.083,10,282.917,10,283.75,10C284.583,10,285.417,10,286.25,10C287.083,10,287.917,10,288.75,10C289.583,10,290.417,10,291.25,10C292.083,10,292.917,10,293.75,10C294.583,10,295.417,10,296.25,10C297.083,10,297.917,10,298.75,10C299.583,10,300.417,10,301.25,10C302.083,10,302.917,10,303.75,10C304.583,10,305.417,10,306.25,10C307.083,10,307.917,10,308.75,10C309.583,10,310.417,10,311.25,10C312.083,10,312.917,10,313.75,10C314.583,10,315.417,10,316.25,10C317.083,10,317.917,10,318.75,10C319.583,10,320.417,10,321.25,10C322.083,10,322.917,10,323.75,10C324.583,10,325.417,10,326.25,10C327.083,10,327.917,10,328.75,10C329.583,10,330.417,10,331.25,10C332.083,10,332.917,10,333.75,10C334.583,10,335.417,10,336.25,10C337.083,10,337.917,10,338.75,10C339.583,10,340.417,10,341.25,10C342.083,10,342.917,10,343.75,10C344.583,10,345.417,10,346.25,10C347.083,10,347.917,10,348.75,10C349.583,10,350.417,10,351.25,10C352.083,10,352.917,10,353.75,10C354.583,10,355.417,10,356.25,10C357.083,10,357.917,10,358.75,10C359.583,10,360.417,10,361.25,10C362.083,10,362.917,10,363.75,10C364.583,10,365.417,10,366.25,10C367.083,10,367.917,10,368.75,10C369.583,10,370.417,10,371.25,10C372.083,10,372.917,10,373.75,10C374.583,10,375.417,10,376.25,10C377.083,10,377.917,10,378.75,10C379.583,10,380.417,10,381.25,10C382.083,10,382.917,10,383.75,10C384.583,10,385.417,10,386.25,10C387.083,10,387.917,10,388.75,10C389.583,10,390.417,10,391.25,10C392.083,10,392.917,10,393.75,10C394.583,10,395.417,10,396.25,10C397.083,10,397.917,10,398.75,10C399.583,10,400.417,10,401.25,10C402.083,10,402.917,10,403.75,10C404.583,10,405.417,10,406.25,10C407.083,10,407.917,10,408.75,10C409.583,10,410.417,10,411.25,10C412.083,10,412.917,10,413.75,10C414.583,10,415.417,10,416.25,10C417.083,10,417.917,10,418.75,10C419.583,10,420.417,10,421.25,10C422.083,10,422.917,10,423.75,10C424.583,10,425.417,10,426.25,10C427.083,10,427.917,10,428.75,10C429.583,10,430.417,10,431.25,10C432.083,10,432.917,10,433.75,10C434.583,10,435.417,10,436.25,10C437.083,10,437.917,10,438.75,10C439.583,10,440.417,10,441.25,10C442.083,10,442.917,10,443.75,10C444.583,10,445.417,10,446.25,10C447.083,10,447.917,10,448.75,10L448.75,10C447.917,10,447.083,10,446.25,10C445.417,10,444.583,10,443.75,10C442.917,10,442.083,10,441.25,10C440.417,10,439.583,10,438.75,10C437.917,10,437.083,10,436.25,10C435.417,10,434.583,10,433.75,10C432.917,10,432.083,10,431.25,10C430.417,10,429.583,10,428.75,10C427.917,10,427.083,10,426.25,10C425.417,10,424.583,10,423.75,10C422.917,10,422.083,10,421.25,10C420.417,10,419.583,10,418.75,10C417.917,10,417.083,10,416.25,10C415.417,10,414.583,10,413.75,10C412.917,10,412.083,10,411.25,10C410.417,10,409.583,10,408.75,10C407.917,10,407.083,10,406.25,10C405.417,10,404.583,10,403.75,10C402.917,10,402.083,10,401.25,10C400.417,10,399.583,10,398.75,10C397.917,10,397.083,10,396.25,10C395.417,10,394.583,10,393.75,10C392.917,10,392.083,10,391.25,10C390.417,10,389.583,10,388.75,10C387.917,10,387.083,10,386.25,10C385.417,10,384.583,10,383.75,10C382.917,10,382.083,10,381.25,10C380.417,10,379.583,10,378.75,10C377.917,10,377.083,10,376.25,10C375.417,10,374.583,10,373.75,10C372.917,10,372.083,10,371.25,10C370.417,10,369.583,10,368.75,10C367.917,10,367.083,10,366.25,10C365.417,10,364.583,10,363.75,10C362.917,10,362.083,10,361.25,10C360.417,10,359.583,10,358.75,10C357.917,10,357.083,10,356.25,10C355.417,10,354.583,10,353.75,10C352.917,10,352.083,10,351.25,10C350.417,10,349.583,10,348.75,10C347.917,10,347.083,10,346.25,10C345.417,10,344.583,10,343.75,10C342.917,10,342.083,10,341.25,10C340.417,10,339.583,10,338.75,10C337.917,10,337.083,10,336.25,10C335.417,10,334.583,10,333.75,10C332.917,10,332.083,10,331.25,10C330.417,10,329.583,10,328.75,10C327.917,10,327.083,10,326.25,10C325.417,10,324.583,10,323.75,10C322.917,10,322.083,10,321.25,10C320.417,10,319.583,10,318.75,10C317.917,10,317.083,10,316.25,10C315.417,10,314.583,10,313.75,10C312.917,10,312.083,10,311.25,10C310.417,10,309.583,10,308.75,10C307.917,10,307.083,10,306.25,10C305.417,10,304.583,10,303.75,10C302.917,10,302.083,10,301.25,10C300.417,10,299.583,10,298.75,10C297.917,10,297.083,10,296.25,10C295.417,10,294.583,10,293.75,10C292.917,10,292.083,10,291.25,10C290.417,10,289.583,10,288.75,10C287.917,10,287.083,10,286.25,10C285.417,10,284.583,10,283.75,10C282.917,10,282.083,10,281.25,10C280.417,10,279.583,10,278.75,10C277.917,10,277.083,10,276.25,10C275.417,10,274.583,10,273.75,10C272.917,10,272.083,10,271.25,10C270.417,10,269.583,10,268.75,10C267.917,10,267.083,10,266.25,10C265.417,10,264.583,10,263.75,10C262.917,10,262.083,10,261.25,10C260.417,10,259.583,10,258.75,10C257.917,10,257.083,10,256.25,10C255.417,10,254.583,10,253.75,10C252.917,10,252.083,10,251.25,10C250.417,10,249.583,10,248.75,10C247.917,10,247.083,10,246.25,10C245.417,10,244.583,10,243.75,10C242.917,10,242.083,10,241.25,10C240.417,10,239.583,10,238.75,10C237.917,10,237.083,10,236.25,10C235.417,10,234.583,10,233.75,10C232.917,10,232.083,10,231.25,10C230.417,10,229.583,10,228.75,10C227.917,10,227.083,10,226.25,10C225.417,10,224.583,10,223.75,10C222.917,10,222.083,10,221.25,10C220.417,10,219.583,10,218.75,10C217.917,10,217.083,10,216.25,10C215.417,10,214.583,10,213.75,10C212.917,10,212.083,10,211.25,10C210.417,10,209.583,10,208.75,10C207.917,10,207.083,10,206.25,10C205.417,10,204.583,10,203.75,10C202.917,10,202.083,10,201.25,10C200.417,10,199.583,10,198.75,10C197.917,10,197.083,10,196.25,10C195.417,10,194.583,10,193.75,10C192.917,10,192.083,10,191.25,10C190.417,10,189.583,10,188.75,10C187.917,10,187.083,10,186.25,10C185.417,10,184.583,10,183.75,10C182.917,10,182.083,10,181.25,10C180.417,10,179.583,10,178.75,10C177.917,10,177.083,10,176.25,10C175.417,10,174.583,10,173.75,10C172.917,10,172.083,10,171.25,10C170.417,10,169.583,10,168.75,10C167.917,10,167.083,10,166.25,10C165.417,10,164.583,10,163.75,10C162.917,10,162.083,10,161.25,10C160.417,10,159.583,10,158.75,10C157.917,10,157.083,10,156.25,10C155.417,10,154.583,10,153.75,10C152.917,10,152.083,10,151.25,10C150.417,10,149.583,10,148.75,10C147.917,10,147.083,10,146.25,10C145.417,10,144.583,10,143.75,10C142.917,10,142.083,10,141.25,10C140.417,10,139.583,10,138.75,10C137.917,10,137.083,10,136.25,10C135.417,10,134.583,10,133.75,10C132.917,10,132.083,10,131.25,10C130.417,10,129.583,10,128.75,10C127.917,10,127.083,10,126.25,10C125.417,10,124.583,10,123.75,10C122.917,10,122.083,10,121.25,10C120.417,10,119.583,10,118.75,10C117.917,10,117.083,10,116.25,10C115.417,10,114.583,10,113.75,10C112.917,10,112.083,10,111.25,10C110.417,10,109.583,10,108.75,10C107.917,10,107.083,10,106.25,10C105.417,10,104.583,10,103.75,10C102.917,10,102.083,10,101.25,10C100.417,10,99.583,10,98.75,10C97.917,10,97.083,10,96.25,10C95.417,10,94.583,10,93.75,10C92.917,10,92.083,10,91.25,10C90.417,10,89.583,10,88.75,10C87.917,10,87.083,10,86.25,10C85.417,10,84.583,10,83.75,10C82.917,10,82.083,10,81.25,10C80.417,10,79.583,10,78.75,10C77.917,10,77.083,10,76.25,10C75.417,10,74.583,10,73.75,10C72.917,10,72.083,10,71.25,10C70.417,10,69.583,10,68.75,10C67.917,10,67.083,10,66.25,10C65.417,10,64.583,10,63.75,10C62.917,10,62.083,10,61.25,10C60.417,10,59.583,10,58.75,10C57.917,10,57.083,10,56.25,10C55.417,10,54.583,10,53.75,10C52.917,10,52.083,10,51.25,10C50.417,10,49.583,10,48.75,10C47.917,10,47.083,10,46.25,10C45.417,10,44.583,10,43.75,10C42.917,10,42.083,10,41.25,10C40.417,10,39.583,10,38.75,10C37.917,10,37.083,10,36.25,10C35.417,10,34.583,10,33.75,10C32.917,10,32.083,10,31.25,10C30.417,10,29.583,10,28.75,10C27.917,10,27.083,10,26.25,10C25.417,10,24.583,10,23.75,10C22.917,10,22.083,10,21.25,10C20.417,10,19.583,10,18.75,10C17.917,10,17.083,10,16.25,10C15.417,10,14.583,10,13.75,10C12.917,10,12.083,10,11.25,10C10.417,10,9.583,10,8.75,10C7.917,10,7.083,10,6.25,10C5.417,10,4.583,10,3.75,10C2.917,10,2.083,10,1.25,10Z" fill="#4c78a8" fill-opacity="0.8" stroke="lightgray" stroke-width="0.5"/></g><g class="mark-group role-title"><g transform="translate(-51.1474609375,5)"><path class="background" aria-hidden="true" d="M0,0h0v0h0Z" pointer-events="none"/><g><g class="mark-text role-title-text" role="graphics-symbol" aria-roledescription="title" aria-label="Title text 'default_1'" pointer-events="none"><text text-anchor="start" transform="translate(0,3)" font-family="sans-serif" font-size="10px" fill="#000" opacity="1">default_1</text></g></g><path class="foreground" aria-hidden="true" d="" pointer-events="none" display="none"/></g></g></g><path class="foreground" aria-hidden="true" d="" display="none"/></g></g></g><path class="foreground" aria-hidden="true" d="" display="none"/></g></g></g></svg>